<?xml version="1.0" encoding="utf-8"?>
<!-- Generator: Adobe Illustrator 24.2.0, SVG Export Plug-In . SVG Version: 6.00 Build 0)  -->
<svg version="1.1" id="Capa_1" xmlns="http://www.w3.org/2000/svg" xmlns:xlink="http://www.w3.org/1999/xlink" x="0px" y="0px"
	 viewBox="0 0 512 241" style="enable-background:new 0 0 512 241;" xml:space="preserve">
<path d="M390.9,2.9c-50.2,0-93.1,31.4-110.2,75.7c-6.9-4.9-15.1-8.2-24.7-8.2s-17.9,3.2-24.7,8.2c-17.1-44.2-60-75.7-110.2-75.7
	C56,2.9,3,55.9,3,121c1.2,33.4,12.2,61,33.7,82.5C58.1,225.4,88,239,121,239c64.2,0,116.5-51.4,118-115.2
	c2.5-6.6,9.3-19.7,16.9-19.7c7.5,0,14.2,12.4,16.9,19.7c1.5,63.8,53.9,115.2,118,115.2c65.1,0,118.1-53,118.1-118.1
	S456,2.9,390.9,2.9z M121.1,205.3c-46.5,0-84.3-37.8-84.3-84.3s37.8-84.3,84.3-84.3s84.3,37.8,84.3,84.3S167.6,205.3,121.1,205.3z
	 M390.9,205.3c-46.5,0-84.3-37.8-84.3-84.3s37.8-84.3,84.3-84.3s84.3,37.8,84.3,84.3S437.4,205.3,390.9,205.3z"/>
</svg>
