<?xml version="1.0" encoding="utf-8"?>
<!-- Generator: Adobe Illustrator 24.2.0, SVG Export Plug-In . SVG Version: 6.00 Build 0)  -->
<svg version="1.1" id="Слой_1" xmlns="http://www.w3.org/2000/svg" xmlns:xlink="http://www.w3.org/1999/xlink" x="0px" y="0px"
	 viewBox="0 0 640 512" style="enable-background:new 0 0 640 512;" xml:space="preserve">
<path d="M634,471L36,3.5C29.1-2,19-0.9,13.5,6c0,0,0,0,0,0l-10,12.5C-2,25.4-0.9,35.5,6,41c0,0,0,0,0,0l598,467.5
	c6.9,5.5,17,4.4,22.5-2.5l10-12.5C642,486.6,640.9,476.5,634,471C634,471,634,471,634,471z M296.8,146.5l134.8,105.4
	C429.4,191.9,380.5,144,320,144C312.2,144,304.4,144.8,296.8,146.5z M343.2,365.5L208.4,260.2C210.6,320.1,259.5,368,320,368
	C327.8,368,335.6,367.2,343.2,365.5L343.2,365.5z M320,112c98.6,0,189.1,55,237.9,144c-12,21.9-26.8,42.1-44,60.2l37.7,29.5
	c21-22.5,38.8-47.8,52.9-75.1c4.6-9.2,4.6-20,0-29.2C550.3,135.6,442.9,64,320,64c-36.7,0-71.7,7-104.6,18.8l46.4,36.3
	C280.7,114.8,300.1,112,320,112z M320,400c-98.6,0-189.1-55-237.9-144c12-21.9,26.8-42.1,44.1-60.2l-37.7-29.5
	c-21,22.5-38.8,47.7-52.9,75.1c-4.6,9.2-4.6,20,0,29.2C89.7,376.4,197.1,448,320,448c36.7,0,71.7-7,104.6-18.8l-46.4-36.3
	C359.3,397.2,339.9,400,320,400z"/>
</svg>
