<?xml version="1.0" encoding="utf-8"?>
<!-- Generator: Adobe Illustrator 24.2.0, SVG Export Plug-In . SVG Version: 6.00 Build 0)  -->
<svg version="1.1" id="spectacles" xmlns="http://www.w3.org/2000/svg" xmlns:xlink="http://www.w3.org/1999/xlink" x="0px" y="0px"
	 viewBox="0 0 100 100" style="enable-background:new 0 0 100 100;" xml:space="preserve">
<path d="M41.5,43c1.1,2.2,1.8,4.6,1.8,7c0-2.1,2.9-3.6,6.7-3.6s6.7,1.6,6.7,3.6c0-2.4,0.7-4.8,1.8-7c-2.4-1-5.3-1.4-8.5-1.4
	S44,42,41.5,43z M21,29.5C9.7,29.5,0.5,38.7,0.5,50S9.7,70.5,21,70.5S41.5,61.3,41.5,50S32.4,29.5,21,29.5z M31.9,52.4
	c-1.3,0-2.4-1.1-2.4-2.4c0-1.1-0.2-2.1-0.6-3c-0.8-2.3-2.7-4.1-5-5c-0.8-0.2-1.8-0.5-2.9-0.5c-1.3,0-2.4-1.1-2.4-2.4
	c0-1.3,1.1-2.4,2.4-2.4c7.4,0,13.3,5.9,13.3,13.3C34.3,51.3,33.2,52.4,31.9,52.4z M79,29.5c-11.3,0-20.5,9.2-20.5,20.5
	S67.6,70.5,79,70.5S99.5,61.3,99.5,50S90.3,29.5,79,29.5z M89.8,52.4c-1.3,0-2.4-1.1-2.4-2.4c0-1.1-0.2-2.1-0.6-3
	c-0.8-2.3-2.7-4.1-5-5c-0.8-0.2-1.8-0.5-2.9-0.5c-1.3,0-2.4-1.1-2.4-2.4c0-1.3,1.1-2.4,2.4-2.4c7.4,0,13.3,5.9,13.3,13.3
	C92.3,51.3,91.2,52.4,89.8,52.4z"/>
</svg>
